<?xml version="1.0" encoding="UTF-8" standalone="no"?>
<!-- Created with Inkscape (http://www.inkscape.org/) -->

<svg
   width="50mm"
   height="50mm"
   viewBox="0 0 50.000001 50"
   version="1.1"
   id="svg5"
   xml:space="preserve"
   inkscape:version="1.2 (dc2aeda, 2022-05-15)"
   sodipodi:docname="cycle.svg"
   inkscape:export-filename="skott.png"
   inkscape:export-xdpi="96"
   inkscape:export-ydpi="96"
   xmlns:inkscape="http://www.inkscape.org/namespaces/inkscape"
   xmlns:sodipodi="http://sodipodi.sourceforge.net/DTD/sodipodi-0.dtd"
   xmlns:xlink="http://www.w3.org/1999/xlink"
   xmlns="http://www.w3.org/2000/svg"
   xmlns:svg="http://www.w3.org/2000/svg"><sodipodi:namedview
     id="namedview7"
     pagecolor="#ffffff"
     bordercolor="#000000"
     borderopacity="0.25"
     inkscape:showpageshadow="2"
     inkscape:pageopacity="0.0"
     inkscape:pagecheckerboard="0"
     inkscape:deskcolor="#d1d1d1"
     inkscape:document-units="mm"
     showgrid="false"
     inkscape:zoom="0.36682869"
     inkscape:cx="269.88075"
     inkscape:cy="700.59951"
     inkscape:window-width="1440"
     inkscape:window-height="774"
     inkscape:window-x="0"
     inkscape:window-y="25"
     inkscape:window-maximized="1"
     inkscape:current-layer="layer1" /><defs
     id="defs2"><linearGradient
       inkscape:collect="always"
       id="linearGradient1713"><stop
         style="stop-color:#ca0e0b;stop-opacity:1;"
         offset="0"
         id="stop1709" /><stop
         style="stop-color:#ca0e0b;stop-opacity:0;"
         offset="1"
         id="stop1711" /></linearGradient><linearGradient
       inkscape:collect="always"
       xlink:href="#linearGradient1713"
       id="linearGradient1715"
       x1="48.880882"
       y1="146.2453"
       x2="153.95143"
       y2="146.2453"
       gradientUnits="userSpaceOnUse" /></defs><g
     inkscape:label="Calque 1"
     inkscape:groupmode="layer"
     id="layer1"
     transform="translate(3.7231088,-58.371647)"><path
       style="fill:#f43735;fill-opacity:1;stroke-width:0.304375"
       d="M 43.165594,83.491811 42.159428,68.104844 22.436912,59.903435 C 14.315963,63.489191 10.382874,65.01178 2.4702025,69.174908 l 0.6070658,8.470058 -2.43077118,0.332695 3.37902818,5.011101 3.4768269,-5.556605 -2.3654297,0.0046 0.1801663,-6.218529 C 17.287037,63.697006 28.389219,63.731636 39.566545,70.204619 l 0.171659,13.009828 z"
       id="path2737"
       sodipodi:nodetypes="ccccccccccccc" /><path
       style="fill:#f43735;fill-opacity:1;stroke-width:0.304375"
       d="m 2.1572608,83.690679 0.5845146,15.416602 19.4879926,8.932739 c 8.214933,-3.28113 12.187676,-4.65625 20.210284,-8.522159 l -0.374955,-8.488379 2.438666,-0.241867 -3.240161,-5.134537 -3.62716,5.424095 2.364412,0.08334 -0.350288,6.208618 C 27.480875,104.44016 16.385257,103.99151 5.3908106,97.105029 L 5.575242,84.095432 Z"
       id="path2737-3"
       sodipodi:nodetypes="ccccccccccccc" /><path
       style="fill:#f43735;fill-opacity:1;stroke-width:0.191173"
       d="M 35.48404,84.340454 34.840564,74.849169 22.227421,69.790226 c -5.19359,2.211826 -7.708925,3.151032 -12.7693298,5.719006 l 0.388236,5.22466 -1.554551,0.205214 2.1609918,3.091042 2.223532,-3.427517 -1.51276,0.0023 0.115217,-3.83583 C 18.933916,72.129706 26.0341,72.151067 33.182334,76.143853 l 0.109808,8.024965 z"
       id="path2737-5"
       sodipodi:nodetypes="ccccccccccccc" /><path
       style="fill:#f43735;fill-opacity:1;stroke-width:0.191173"
       d="m 9.2579542,84.463127 0.373815,9.509549 12.4631768,5.510065 c 5.253697,-2.02391 7.794391,-2.87215 12.925091,-5.256801 l -0.239798,-5.235965 1.559611,-0.149178 -2.072195,-3.167179 -2.31968,3.345785 1.512127,0.05144 -0.224032,3.829715 c -7.78289,4.361683 -14.878878,4.084933 -21.910161,-0.162921 l 0.117949,-8.024814 z"
       id="path2737-3-4"
       sodipodi:nodetypes="ccccccccccccc" /><path
       style="fill:#f43735;fill-opacity:1;stroke-width:0.10613"
       d="m 15.258718,85.041955 0.416867,5.264746 7.033594,2.729034 c 2.86916,-1.260459 4.259562,-1.797652 7.052538,-3.254968 l -0.248351,-2.897872 0.86167,-0.123737 -1.219044,-1.702304 -1.212779,1.916638 0.839755,-0.0104 -0.03988,2.130071 c -4.220353,2.623521 -8.161934,2.656279 -12.155159,0.484748 l -0.111311,-4.45412 z"
       id="path2737-5-8"
       sodipodi:nodetypes="ccccccccccccc" /><path
       style="fill:#f43735;fill-opacity:1;stroke-width:0.10613"
       d="m 29.81654,84.809023 -0.267284,-5.276571 -6.953157,-2.980401 c -2.903709,1.156522 -4.308768,1.643366 -7.141922,2.999369 l 0.166018,2.905085 -0.864837,0.09258 1.170231,1.745141 1.266666,-1.871882 -0.839732,-0.01907 0.10033,-2.127354 c 4.293014,-2.470164 8.233866,-2.36113 12.16375,-0.04727 l -0.01514,4.455471 z"
       id="path2737-3-4-3"
       sodipodi:nodetypes="ccccccccccccc" /></g></svg>
